<?xml version="1.0" encoding="utf-8"?>
<!-- Generator: Adobe Illustrator 28.1.0, SVG Export Plug-In . SVG Version: 6.00 Build 0)  -->
<svg version="1.1" id="Logo-Col" xmlns="http://www.w3.org/2000/svg" xmlns:xlink="http://www.w3.org/1999/xlink" x="0px" y="0px"
	 viewBox="0 0 1190.6 841.9" style="enable-background:new 0 0 1190.6 841.9;" xml:space="preserve">
<style type="text/css">
	.st0{fill:#002129;}
</style>
<g>
	<path class="st0" d="M824.5,495c-2.1,12.3-7.1,22.4-13.8,31.6c-12.2,16.7-27.8,28.9-48,34.6c-15.1,4.3-30.4,5.4-46,4.3
		c-21.9-1.6-43.2-6.4-64.2-12.7c-21.7-6.6-43.5-13.1-64.9-20.5c-30.5-10.6-60.7-21.9-90.9-33.2c-21-7.8-42.2-15.2-64.4-19.1
		c-15.4-2.7-30.9-4.4-46.6-2.7c-1,0.1-2,0.1-3.6,0.2c-1.4-16-2.7-31.9-4.1-48.3c8.7,3.5,16.5,6.9,24.5,9.7
		c23.2,8.2,46.7,15.8,69.8,24.3c22,8,43.8,16.9,65.7,25.2c30,11.4,60.2,22.2,91.6,29.6c24.2,5.7,48.4,10.7,73.3,11.4
		c30.4,0.9,60.2-2.8,89-13.1C805.8,511.1,813.7,506.1,824.5,495z"/>
	<path class="st0" d="M698.1,429c-15.4-3.3-30.2-8.5-44.3-15.8c20.6-3.5,35.5-14.4,43.5-33.3c7.9-18.6,6-37-5.3-55.6
		c4.9,1.2,8.8,2.1,12.7,3.1c8.5,2.2,16.9,2.1,25.2-1.1c2.1-0.8,4.5-1.2,6.8-1.3c33.5-0.1,67-0.1,100.5-0.1c0.1,0,0.3,0.1,0.5,0.2
		c-0.5,8.8-1,17.6-1.4,26.5C768.8,329.4,709.8,375.4,698.1,429z"/>
	<path class="st0" d="M531.1,258.3c50.3,0,100.8,0,151.7,0c0,7.9,0.2,15.5-0.1,23.2c-0.3,8.7-1.1,17.4,3.2,25.5
		c1.1,2,3.7,5.6,3.1,6.3c-2.2,2.9-4.3,1.5-7-0.5c-5.5-4.2-11.2-8.2-16.8-12.2c-1.7-1.2-2.7-2.4-2.1-4.9c1.2-5,1.8-10.2,2.4-15.4
		c0.1-1.3-0.9-3.4-1.9-3.9c-2.1-0.9-4,0.1-4.5,2.6c-0.9,4.7-1.9,9.4-2.5,14.1c-0.4,2.5-1.2,3.3-3.7,2.5c-4.3-1.3-8.5-2.5-12.9-3.5
		c-2.4-0.6-3-1.7-2.6-4c0.4-2.4,0.5-4.9,1-7.3c0.5-2.7-0.5-4.8-3-4.6c-1.5,0.1-3.7,2.3-4.1,3.9c-0.8,3.3-0.5,6.8-0.7,10.7
		c-6.8,0-13.3,0-20.1,0c0-3-0.2-6.2,0.1-9.3c0.3-3-0.2-5.6-3.6-5.6c-3,0-4,2.1-3.8,5.1c0.2,3.9,0.1,7.8,0.1,11.5
		c-6.2,2-11.9,3.8-18.4,5.9c-0.8-5.8-1.7-11.6-2.2-17.4c-0.3-3.1-1.5-5.5-4.5-5.1c-3.3,0.4-3.3,3.3-2.8,6.2c1.1,6.4,2,12.8,3,19.3
		c-8.3,4.2-16.6,8.5-25.6,13.1c-0.5-1.6-0.5-3.1-0.3-4.3c1.1-9.5,2.3-18.9,3.6-28.3c0.3-2.3,0.9-5.1-2.4-5.5
		c-3.1-0.4-4.4,1.7-4.7,4.8c-1.2,10.7-2.7,21.4-4.1,32.6c-6.1,0-12.2,0-18.9,0c1-2.4,1.8-4.5,2.7-6.6c3.6-8.6,3-17.5,2.5-26.5
		C530.8,273.2,531.1,265.9,531.1,258.3z"/>
	<path class="st0" d="M383.4,494.5c8-0.2,16.1-1,24.1-0.5c23.8,1.6,46.3,8.7,68.5,16.8c38.9,14.2,77.5,29.4,117.4,40.3
		c17.6,4.8,35.4,8.5,53.2,12.7c0.6,0.1,2.9,0.4,2,1.5c-0.5,0.6-1.8,0.7-4.6,1.1c-19,2.3-37.9,1.3-56.8-0.9
		c-32-3.7-62.8-12.3-93.1-23.3c-20.6-7.5-41.8-13.8-63.1-19.1c-10.7-2.7-22.3-2-33.5-2.6c-2.3-0.1-3.8-0.5-4.8-2.7
		c-3.2-7.2-6.5-14.5-9.8-21.7C382.8,496,381.8,494.5,383.4,494.5z"/>
	<path class="st0" d="M804.4,313.9h-30.9c1.4-10.2,2.8-19.8,4.1-29.4c0.1-1,0.3-2,0.5-3c0.5-2.4,0.8-4.8-2.4-5
		c-2.3-0.1-4.1,0.5-4.5,3.5c-1,7.6-2.2,15.2-3.4,22.7c-0.6,3.6-1.3,7.1-2.1,10.9h-23.5c7-10,6.6-20.5,5.7-31.3
		c-0.7-7.8-0.1-15.6-0.1-24.2c7,0,14.1,0,21.1,0c21.2,0.1,42.3,0,63.5,0.2c11.7,0.1,18.9,7.3,24,16.8c4.7,8.9,3.9,17.9-1.1,26.5
		c-5.9,10.1-15,13.2-26.1,12.6c-4.9-0.3-9.8,0-14.9,0c2.6-11.2,5-22,7.8-32.7c0.7-2.7,0.8-5.1-2-5.3c-1.5-0.1-4.3,2-4.8,3.7
		c-1.5,5-2.2,10.4-3.3,15.5c-0.7,3-2,5.8-2.8,8.8c-1-4.1-2.3-8.2-3.2-12.3c-1-4.1-1.7-8.3-2.6-12.5c-0.5-2.4-2.8-3.9-5.2-3.4
		c-3,0.7-2.5,2.8-1.9,5.2c2,7.8,3.5,15.7,5.4,23.6C802.4,307.7,803.4,310.5,804.4,313.9z"/>
	<path class="st0" d="M403.9,313.6c2.7-11.3,5.4-22.3,8-33.4c0.2-0.9,0.1-2.5-0.5-3c-0.8-0.7-2.6-0.8-3.4-0.7
		c-2.3,0.3-3.7,3.4-4.3,5.5c-1.5,5.4-2.4,11-3.6,16.6c-0.2,1.1-0.7,2.8-1.9,4.5c-0.9-3.4-1.9-7.9-2.7-11.3c-0.9-3.7-1.6-7.4-2.4-11
		c-0.6-2.6-1.3-5.6-4.9-4.7c-3.5,0.9-3.2,3.7-2.4,6.6c2.6,9.5,5.1,19,7.6,28.5c0.2,0.8,0.2,1.6,0.3,2.2c-8,0-15.9,1-23.4-0.3
		c-9.4-1.5-17.1-13.8-17.4-24.1c-0.4-17.9,13.2-31.3,31.6-31c25.8,0.4,51.7,0.1,77.5,0c1.3,0,2.6,0,3.8,0c0,8.4,0.5,16.6-0.1,24.7
		c-0.9,10.2-0.4,19.9,5.4,28.8c0.4,0.6,0.8,1.3,0.6,2.2c-10.5,0-20.7,0-31.2,0c0-1.7-0.2-3.1,0-4.5c1.9-9.2,3.8-18.4,6.1-27.5
		c0.7-2.8,0.6-5.3-2.2-6c-3.2-0.8-4.6,2-5.2,4.6c-1.1,4.9-1.9,9.9-2.9,14.8c-0.5,2.5-1.1,5.1-1.8,8.5c-0.8,2.3-1.9-1.9-2.1-2.6
		c-1.6-6-2.9-12.1-4.5-18c-0.6-2.1-1.6-4.3-3-6c-0.7-0.8-3.1-1.2-4-0.6c-0.9,0.6-1.5,2.7-1.2,4c2.6,10.9,5.3,21.8,8.1,33.1
		C419.9,313.6,412.3,313.6,403.9,313.6z"/>
	<path class="st0" d="M369.1,324.8c14.4,0,27.8,0,41.2,0c21.9,0,43.7,0,65.6,0.1c3.5,0,7.1,0.9,10.6,1.7c9.5,2.2,18.8,2.8,28.1-0.9
		c1.9-0.8,4.2-0.8,6.3-0.8c5.4-0.1,10.9,0,16.3,0c1.2-0.1,1.3,0.7,0.7,1.1c-3.2,2.2-6.2,4.7-9.5,6.7c-20.4,12.8-42.5,21-66.3,24
		c-12.9,1.6-25.8,1.1-38.7-2.2c-14.3-3.7-28.2-8.3-40.8-16.1c-4.2-2.6-8-5.7-11.7-8.9C369.9,328.6,369.8,326.8,369.1,324.8z"/>
	<path class="st0" d="M802,421.1c-12.6,3.1-24.2,6.3-35.9,8.7c-15.4,3.2-31,3.4-46.7,2.6c-2.3-0.1-5-0.4-7.3-1
		c0.9-2,2.1-4.8,3.3-6.7c12.6-19.9,31-31.3,53.9-35.2c21.4-3.7,39.3,3.6,54,19.4c1.7,1.8,1.1,2.3-0.9,3.8c-0.7,0.5-1.9,1.3-2.7,1.7
		c-8.3,5.2-13.7,3.3-21.5-3.8c-7-6.4-16.8-7.6-26.3-7.2c-1.5,0.1-4.3,0.4-4.3,2.7s2.6,2,3.9,2C782.9,408.5,792.8,412,802,421.1z"/>
	<path class="st0" d="M565,581.5c-19.6,3.8-39.2,2.6-58.7,0.1c-22.4-2.9-44.6-7.3-65.7-15.7c-13.1-5.2-24-13-33.8-23.1
		c-0.6-0.6-2-2.1-2.2-3.2c-0.3-1.5,3.2-1.2,5.2-1.3c14.9-0.5,29,3.5,42.6,8.9c33.2,13.2,67.4,23,102.8,28.2
		c4.7,0.7,9.5,1.2,14.2,1.8c1.1,0.1,3.1,0.3,3.1,1.7S567.6,581,565,581.5z"/>
	<path class="st0" d="M832.1,408c-36.5-35.8-73.2-30.6-109.8-4c6.9-12.7,17.1-21.2,33.6-27.6c16.7-6.5,33.7-6.3,50.8-2.3
		c9.7,2.2,17.5,8.1,24.8,14.7c0.9,0.8,1.8,2.2,1.7,3.3C833,397,832.5,401.8,832.1,408z"/>
	<path class="st0" d="M834,383.5c-13.9-13.1-29.8-18.3-47.3-19.7c-1.1-0.1-3.3-0.1-3.3-1.9c0-1.8,1.8-1.9,2.9-2.2
		c16-4.2,31.5-2.1,46.6,4c1,0.4,2.1,2.1,2.1,3.2C834.9,372,834.4,377.2,834,383.5z"/>
	<path class="st0" d="M452.4,603.8c-1-7.6,6.1-15.1,15.2-15.8c8.5-0.7,20.6,7.1,24,15.8C478.4,603.8,465.4,603.8,452.4,603.8z"/>
	<path class="st0" d="M802.3,593.3c2.7-1.4,4.4-2.7,6.2-3.1c4.3-0.8,8.7-1.3,13-1.5c0.8,0,2.2,1.4,2.5,2.4c0.2,0.7-0.7,2.2-1.5,2.7
		c-2.1,1.3-4.2,2.6-6.5,3.3c-6.6,1.9-13.2,3.5-20.4,5.3c-0.1-0.3-0.8-1.4-0.7-2.4c1.4-9.2,2.8-18.4,4.7-27.5
		c0.6-3.1,2.2-7.5,6.3-5.8c1.7,0.7,2.8,5.9,2.3,8.6c-1,4.9-3.5,9.4-5.3,14.2C802.6,590.3,802.6,591.1,802.3,593.3z"/>
	<path class="st0" d="M412.7,592.3c-1.5-3.5-3.1-7-4.4-10.6c-1.2-3.2-2.6-6.5-2.8-9.9c-0.1-1.8-1.1-5.6,3.2-5.6s4.3,2.2,4.7,3.8
		c2,7.8,3.4,15.8,5,23.7c0.3,1.7,0.7,3.3,0.9,5c0.1,1,0.2,2.4-0.3,3.1c-0.4,0.6-1.9,0.8-2.7,0.5c-6.8-1.8-13.6-3.7-20.4-5.6
		c-0.6-0.2-1.3-0.2-1.6-0.5c-1.4-1.3-3.9-1-3.9-4.1c0-3,3.6-3.6,5.3-3.5c3.9,0.2,7.9,1.4,11.7,2.4c1.5,0.4,2.8,1.3,4.3,2
		C411.9,592.8,412.3,592.5,412.7,592.3z"/>
	<path class="st0" d="M381.7,579.6c2.8-5,7.3-1,10.2-1.6c-2.2-3-4.8-6-6.4-9.4c-0.7-1.5-2.2-4.5,0.8-6c3-1.5,4.2,0.5,5.4,1.6
		c2.5,2.4,4.3,5.4,6.4,8.1c1.5,1.9,3.5,3.7,4.4,5.8c0.6,1.4,0.5,4.3-0.5,5.1C397.4,587.2,385.6,584.9,381.7,579.6z"/>
	<path class="st0" d="M823.7,577.4c1.6-0.1,3.7-0.6,5.8-0.4c2.7,0.3,3.8,1.9,1.6,4c-1.4,1.4-3.2,2.9-4.9,3.1
		c-3.8,0.5-7.8,0.6-11.6,0.3c-2.3-0.2-5.1-1.4-2.9-4.5c3.6-5.3,7.3-10.4,11.3-15.3c1-1.2,3.4-1.4,5.1-2c0.4,2,1.8,4.4,1.1,5.9
		C828,571.8,825.6,574.5,823.7,577.4z"/>
	<path class="st0" d="M779.1,599.8c1.9-4.9,3.3-9.2,5.2-13.3c0.5-1.1,2.8-2.2,3.8-1.9c1,0.3,2.2,2.5,2.1,3.7
		c-0.4,4.4-1.1,8.8-2.2,13.1c-0.5,2.1-2,4.8-4.8,3.5C781.6,604,780.6,601.7,779.1,599.8z"/>
	<path class="st0" d="M425.5,584.3c4.8,1.4,8.7,7.3,8.9,13.3c0.1,2.5,1.3,6-2.4,6.9c-3.9,0.9-5.1-2.5-6.1-5.3
		C424,594.4,423.4,589.5,425.5,584.3z"/>
	<path class="st0" d="M830.9,602.7c-2.2-1.2-3.9-1.5-4.4-2.5c-0.4-0.8,0.5-2.8,1.4-3.4c4-2.7,8.1-5.3,12.4-7.5
		c1.1-0.5,4,0.3,4.3,1.2c0.5,1.4,0.2,4.3-0.8,4.9C839.7,598.1,835.1,600.4,830.9,602.7z"/>
	<path class="st0" d="M384.8,602c-6.9-0.6-11.8-2.9-15-7.9c-0.6-1-1-3-0.4-3.8c0.7-0.9,2.8-1.5,3.8-1c4.3,2,8.5,4.2,12.6,6.7
		c1.1,0.7,2.4,2.8,2,3.6C387.3,600.8,385.5,601.5,384.8,602z"/>
	<path class="st0" d="M561.8,441.2c-0.3,3-3.4,5.9-6.1,5.7c-2.9-0.2-5.5-3.2-5.3-6.3c0.2-3.3,2.9-5.8,5.9-5.6
		C559.3,435.3,562.1,438.4,561.8,441.2z"/>
	<path class="st0" d="M784.1,451.7c0,0,0.2,0.1,0.2,0.1S784.1,451.7,784.1,451.7z"/>
	<path class="st0" d="M738.4,287.8c-0.8-2.3-1.5-4.6-1.5-7c-0.1-11.4,0.2-22.8,0-34.2c-0.2-8.5,0-17.3-2-25.4
		c-4.9-19.8-13.9-37.7-27.3-53.3c-24.2-28.2-55.2-44.3-91.7-46.4c-53.4-3.1-95,19.4-123,65.3c-9.5,15.5-16,32.5-16.4,51.2
		c-0.1,6.5,0.1,23.6,0.1,25.6c0,7.2,1.2,14.8-0.4,21.7c-1.9,8.3-1.3,15.2,3.7,22c6.3,8.6,15.2,11.7,26,8.6c8.3-2.4,16-12,16.1-20.9
		c0.1-3.6-1.6-7.2-1.6-10.9c0-18.4-0.2-36.8,0.8-55.1c0.6-10.3,4.9-20,10.5-28.7c5.4-8.5,12.9-15.1,21-21.2
		c15.2-11.4,32.2-17,51-17.5c16.8-0.5,33.1,2.5,47.5,11.1c25.6,15.2,41.5,37.2,41.5,68.2c0,16.9-0.4,33.8-1,50.8
		c-0.7,17.2,16.5,30,32.6,23.8C732.5,312.4,742.3,299.7,738.4,287.8z M498.1,303.5c-7,0-11.9-5-12-12.1c-0.1-7.5,5.4-13.5,12.3-13.6
		c7.3-0.1,12.5,5.8,12.5,14.2C510.9,299.2,506,303.5,498.1,303.5z M715.5,303.6c-7.3-0.1-12.6-5.5-12.6-12.7
		c0-7.7,5.2-12.8,12.8-12.9c7.4-0.1,12.3,5.7,12.3,14.2C728,299.2,723,303.7,715.5,303.6z"/>
	<path class="st0" d="M813.9,452.6c-10.4,6.3-21.1,12.1-31.9,17.7c-7.5,3.8-15.1,7.4-23,10.3c-25.3,9.5-51.3,15.4-78.3,17.6
		c-37.7,3.1-74.2-0.7-108.5-17.6c-13.1-6.4-24.6-15.2-33.9-26.6c-11.9-14.5-19-30.9-20.1-50.2c-47.2,23.4-94.2,23.6-141.6,0.7
		c0.3,5.7,0.5,11,1,16.3c0.1,0.8,1,1.8,1.7,2.1c5,2,10,3.9,15,5.6c21.9,7.2,44,13.8,65.7,21.7c28.8,10.4,57.1,22,85.8,32.8
		c16.8,6.3,33.6,12.8,50.7,18.1c17.1,5.3,34.6,9.6,52.1,13.5c34.9,7.9,70.1,9.8,105.5,4c25.4-4.2,49.3-11.9,69.4-28.8
		c1.4-1.2,2.8-3.3,2.9-5.2c1-10.7,1.7-21.4,2.5-32c0.3-3.9,0.6-5.4,0.6-10.2C823.6,446.7,819.5,449.2,813.9,452.6z M486.4,447.5
		c-3.3-0.1-5.5-1.8-6-5.1c-0.4-3.2,2.7-6.4,5.8-6.4c2.7,0.1,5.7,3.2,5.8,6C492.1,444.9,489.4,447.5,486.4,447.5z"/>
	<path class="st0" d="M716.2,298c-4.3,0.1-7.2-2.7-7.3-6.9c-0.1-4.2,2.9-7.6,6.6-7.5c4.2,0,7.7,3.3,7.8,7.2
		C723.5,294.3,719.9,297.9,716.2,298z"/>
	<path class="st0" d="M498.1,297.9c-3.7,0-6.7-2.7-6.7-6.4c-0.1-4.3,2.9-7.8,6.9-8c4-0.2,7.4,3.3,7.4,7.5
		C505.6,294.6,502.1,297.9,498.1,297.9z"/>
	<path class="st0" d="M794.7,455.5c7-4.1,35.6-23.4,35.6-23.4v-12.8c-18.7,11.2-40.2,18.8-52.2,21.5c-15.2,3.4-30.4,4-45.8,4
		c-33.2-0.1-64.8-6.2-92.7-25.5c-13.2-9.1-24.1-20.3-29.5-36c-6.9-19.8,0.1-39.8,18.4-50c11.8-6.6,23.8-5.9,35.2,1.8
		c11.5,7.8,15,18.6,12.6,31.8c-1.7,9.1-9.9,17.5-18.4,18.7c-2.8,0.4-6.7,1.6-7.5-2c-0.8-3.8,3.4-3.6,5.9-4.3
		c7.8-2.2,14.3-11.1,14.1-19.2c-0.3-10.8-5.9-17.9-15.2-22.4c-8.6-4.1-16.9-1.8-24.3,3.2c-17.3,11.8-16,41.7,4.3,53.8
		c15.6,9.3,37.4,2.9,47.4-13.5c8.8-14.5,8.8-38.1-4.8-54.1c0,0-19.8-23.5-52.8-23.5s-63,19.1-88.9,37.5
		c-25.8,18.4-56.8,28.2-91.2,28.2s-58.1-13.6-72-23.7l2.9,51.9c0,0,35.9,18,66.8,18s71.4-8.5,105.5-40.2s47.5-56.5,79.2-60.5
		c2.6-0.3,7.1-1,7.2,2.4c0.4,4.3-4.3,4.1-7.2,4.6c-8.6,1.3-16.4,4.8-23.7,9.3c-10.9,6.8-20.1,15.7-28.5,25.3
		c-14.3,16.4-29.3,31.8-48.4,42.9c-1.3,0.7-2.2,3.3-2.1,5c1.2,20.2,10.3,37,24,51.1c16,16.6,36.5,25.7,58.6,31.1
		c35.1,8.6,70.4,7.7,105.6,0.2c22.4-4.8,44-12.5,64.7-22.3 M474.2,384.3c-0.6,0.2-14.8,5.1-30.5,5.1c-33.2,0-58.6-14-59.6-14.6
		c-2.1-1.2-2.8-3.8-1.7-5.9c1.2-2.1,3.8-2.8,5.9-1.7c0.2,0.1,24.5,13.5,55.4,13.5c14.2,0,27.5-4.6,27.6-4.6c2.3-0.8,4.7,0.4,5.5,2.6
		C477.6,381.1,476.4,383.5,474.2,384.3z M561.8,441.2c-0.3,3-3.4,5.9-6.1,5.7c-2.9-0.2-5.5-3.2-5.3-6.3c0.2-3.3,2.9-5.8,5.9-5.6
		C559.3,435.3,562.1,438.4,561.8,441.2z M762.4,460.4c-26.3,10.5-53.6,14.8-81.8,11.5c-18.2-2.1-35.1-8.3-50.7-18
		c-17.8-11.1-31.3-26-39.8-45.3c-2.2-5-3.7-10.3-5.1-15.6c-0.6-2.3-0.7-5.5,2.4-6.1c3-0.5,3.8,2.3,4.5,4.8
		c8.6,32.4,29.6,53.5,60.1,65.9c34.3,13.9,68.4,10.2,102.4-1.2c2-0.7,5.3-2.4,7.3-3.2C769.1,450.7,766.4,458.8,762.4,460.4z"/>
	<path class="st0" d="M719.8,605.2h42.7c0,0,7.2-1.1,7.2-11.5c0-10.4-7.9-13.3-14.2-13.3c-6.3,0-13.6,2.8-17.2,9.6
		c-3.6,6.8-8.7,2.2-15.2,6.5C716,601.1,719.8,605.2,719.8,605.2z"/>
</g>
<g>
	<g>
		<path class="st0" d="M581.8,605.2h-7.6v-5.6h22.3v5.6h-7.6v19.3h-7V605.2z"/>
		<path class="st0" d="M629.5,599.7v24.9h-7v-9.7h-9.6v9.7h-7v-24.9h7v9.3h9.6v-9.3H629.5z"/>
		<path class="st0" d="M661.7,619.1v5.4h-20v-24.9h19.5v5.4h-12.5v4.2h11.1v5.3h-11.1v4.6H661.7z"/>
	</g>
	<g>
		<path class="st0" d="M370.1,691.9h23.9v39.5c-11,7.9-26.2,12.1-40.1,12.1c-30.4,0-52.6-20.6-52.6-49.6s22.2-49.6,53.2-49.6
			c17.9,0,32.3,6.1,41.7,17.4l-17.2,15.5c-6.5-7.2-14-10.6-23.2-10.6c-16.4,0-27.3,10.8-27.3,27.3c0,16.1,10.9,27.3,27,27.3
			c5,0,9.8-1,14.6-3.1V691.9z"/>
		<path class="st0" d="M417.6,694c0-28.6,22.5-49.6,53-49.6s53,21,53,49.6s-22.5,49.6-53,49.6S417.6,722.6,417.6,694z M496.3,694
			c0-16.5-11.3-27.3-25.8-27.3s-25.8,10.8-25.8,27.3s11.3,27.3,25.8,27.3S496.3,710.5,496.3,694z"/>
		<path class="st0" d="M694.9,646.3l-30.9,95.4h-28.9l-18.3-58.1l-19.1,58.1h-28.9l-30.9-95.4h27.8l19.2,60.9l20.2-60.9h24.8
			l19.2,61.5l20-61.5H694.9z"/>
		<path class="st0" d="M793.5,720.8v20.9h-76.6v-95.4h74.8v20.9h-48.1v16.1H786v20.2h-42.4v17.4H793.5z"/>
		<path class="st0" d="M863.4,716.3h-14.7v25.4h-27v-95.4h43.6c26,0,42.4,13.5,42.4,35.3c0,14-6.8,24.4-18.7,30.1l20.6,30h-28.9
			L863.4,716.3z M863.7,667.5h-15v27.9h15c11.2,0,16.8-5.2,16.8-13.9C880.4,672.7,874.8,667.5,863.7,667.5z"/>
	</g>
	<g>
		<path class="st0" d="M415.3,773c0,5.7-4.3,9.2-11.1,9.2h-4.3v6.5h-7v-24.9h11.4C411,763.8,415.3,767.3,415.3,773z M408.2,773
			c0-2.3-1.5-3.7-4.4-3.7h-3.9v7.3h3.9C406.7,776.6,408.2,775.3,408.2,773z"/>
		<path class="st0" d="M425.7,763.8h7v24.9h-7V763.8z"/>
		<path class="st0" d="M443.5,776.2c0-7.6,5.8-12.9,13.7-12.9c4.6,0,8.3,1.7,10.7,4.7l-4.5,4.1c-1.6-1.9-3.5-2.9-5.9-2.9
			c-4.1,0-6.9,2.8-6.9,7.1s2.8,7.1,6.9,7.1c2.4,0,4.3-1,5.9-2.9l4.5,4.1c-2.4,3-6.1,4.7-10.7,4.7
			C449.3,789.2,443.5,783.8,443.5,776.2z"/>
		<path class="st0" d="M501.6,763.8v24.9h-5.8l-11-13.3v13.3h-6.9v-24.9h5.8l11,13.3v-13.3H501.6z"/>
		<path class="st0" d="M513.7,763.8h7v24.9h-7V763.8z"/>
		<path class="st0" d="M531.5,776.2c0-7.6,5.8-12.9,13.7-12.9c4.6,0,8.3,1.7,10.7,4.7l-4.5,4.1c-1.6-1.9-3.5-2.9-5.9-2.9
			c-4.1,0-6.9,2.8-6.9,7.1s2.8,7.1,6.9,7.1c2.4,0,4.3-1,5.9-2.9l4.5,4.1c-2.4,3-6.1,4.7-10.7,4.7
			C537.3,789.2,531.5,783.8,531.5,776.2z"/>
		<path class="st0" d="M582.3,776.2c0-7.6,5.8-12.9,13.7-12.9c4.6,0,8.3,1.7,10.7,4.7l-4.5,4.1c-1.6-1.9-3.5-2.9-5.9-2.9
			c-4.1,0-6.9,2.8-6.9,7.1s2.8,7.1,6.9,7.1c2.4,0,4.3-1,5.9-2.9l4.5,4.1c-2.4,3-6.1,4.7-10.7,4.7
			C588.1,789.2,582.3,783.8,582.3,776.2z"/>
		<path class="st0" d="M614.8,776.2c0-7.5,5.9-12.9,13.8-12.9s13.8,5.5,13.8,12.9c0,7.5-5.9,12.9-13.8,12.9S614.8,783.7,614.8,776.2
			z M635.4,776.2c0-4.3-3-7.1-6.7-7.1s-6.7,2.8-6.7,7.1s3,7.1,6.7,7.1S635.4,780.5,635.4,776.2z"/>
		<path class="st0" d="M675.7,788.7l-0.1-13.2l-6.4,10.7h-3.1l-6.4-10.4v12.8h-6.5v-24.9h5.8l8.7,14.4l8.5-14.4h5.8l0.1,24.9H675.7z
			"/>
		<path class="st0" d="M716.8,773c0,5.7-4.3,9.2-11.1,9.2h-4.3v6.5h-7v-24.9h11.4C712.5,763.8,716.8,767.3,716.8,773z M709.7,773
			c0-2.3-1.5-3.7-4.4-3.7h-3.9v7.3h3.9C708.2,776.6,709.7,775.3,709.7,773z"/>
		<path class="st0" d="M742.2,783.8h-10.5l-2,4.8h-7.2l11-24.9h6.9l11,24.9h-7.3L742.2,783.8z M740.1,778.6l-3.2-8l-3.2,8H740.1z"/>
		<path class="st0" d="M784.2,763.8v24.9h-5.8l-11-13.3v13.3h-6.9v-24.9h5.8l11,13.3v-13.3H784.2z"/>
		<path class="st0" d="M809.7,779.7v8.9h-7v-9l-9.5-15.9h7.4l5.9,9.9l5.9-9.9h6.8L809.7,779.7z"/>
	</g>
</g>
</svg>
