<svg width="60" height="57" viewBox="0 0 60 57" fill="none" xmlns="http://www.w3.org/2000/svg">
<path d="M55.8524 45.8863C55.6037 47.3679 55.0115 48.5844 54.218 49.6925C52.7732 51.7041 50.9257 53.1736 48.5334 53.8601C46.7451 54.3781 44.9332 54.5106 43.0857 54.3781C40.4921 54.1853 37.9695 53.6072 35.4825 52.8483C32.9126 52.0534 30.3308 51.2704 27.7964 50.3791C24.1843 49.1023 20.6078 47.7413 17.0312 46.3802C14.5442 45.4407 12.0335 44.5493 9.40435 44.0796C7.58054 43.7543 5.74488 43.5496 3.88554 43.7543C3.76711 43.7664 3.64868 43.7664 3.45919 43.7784C3.29339 41.8512 3.13943 39.9361 2.97363 37.9607C4.00397 38.3823 4.92772 38.7918 5.87515 39.1291C8.62272 40.1168 11.4058 41.0322 14.1415 42.056C16.747 43.0196 19.3287 44.0916 21.9223 45.0913C25.4752 46.4645 29.0518 47.7653 32.7705 48.6567C35.6365 49.3432 38.5025 49.9455 41.4514 50.0298C45.0516 50.1382 48.5808 49.6925 51.9916 48.4519C53.6377 47.8256 54.5733 47.2233 55.8524 45.8863Z" fill="white"/>
<path d="M40.8831 37.9368C39.0593 37.5393 37.3066 36.913 35.6367 36.0337C38.0764 35.6121 39.841 34.2992 40.7884 32.0227C41.724 29.7823 41.499 27.5661 40.1607 25.3257C40.741 25.4702 41.2029 25.5786 41.6648 25.6991C42.6714 25.9641 43.6662 25.952 44.6492 25.5666C44.8979 25.4702 45.1821 25.422 45.4545 25.41C49.4219 25.398 53.3893 25.398 57.3567 25.398C57.3685 25.398 57.3922 25.41 57.4159 25.422C57.3567 26.482 57.2975 27.542 57.2501 28.614C49.2561 25.94 42.2688 31.4807 40.8831 37.9368Z" fill="white"/>
<path d="M21.105 17.376C27.062 17.376 33.0427 17.376 39.0707 17.376C39.0707 18.3275 39.0944 19.243 39.0589 20.1704C39.0233 21.2183 38.9286 22.2663 39.4378 23.2419C39.5681 23.4828 39.876 23.9164 39.805 24.0007C39.5444 24.35 39.2957 24.1814 38.976 23.9405C38.3246 23.4346 37.6496 22.9528 36.9864 22.471C36.785 22.3265 36.6666 22.1819 36.7376 21.8808C36.8798 21.2786 36.9508 20.6522 37.0219 20.0259C37.0337 19.8693 36.9153 19.6164 36.7969 19.5561C36.5482 19.4477 36.3231 19.5682 36.2639 19.8693C36.1573 20.4354 36.0389 21.0015 35.9679 21.5676C35.9205 21.8688 35.8257 21.9651 35.5297 21.8688C35.0204 21.7122 34.523 21.5676 34.0019 21.4472C33.7177 21.3749 33.6466 21.2424 33.694 20.9654C33.7414 20.6763 33.7532 20.3752 33.8124 20.0861C33.8717 19.7609 33.7532 19.5079 33.4572 19.532C33.2795 19.5441 33.019 19.8091 32.9716 20.0018C32.8768 20.3993 32.9124 20.8209 32.8887 21.2906C32.0834 21.2906 31.3136 21.2906 30.5083 21.2906C30.5083 20.9293 30.4846 20.5438 30.5201 20.1704C30.5556 19.8091 30.4964 19.4959 30.0938 19.4959C29.7385 19.4959 29.62 19.7488 29.6437 20.1102C29.6674 20.58 29.6556 21.0497 29.6556 21.4954C28.9213 21.7363 28.2463 21.9531 27.4765 22.206C27.3817 21.5074 27.2751 20.8088 27.2159 20.1102C27.1804 19.7368 27.0383 19.4477 26.683 19.4959C26.2922 19.5441 26.2922 19.8934 26.3514 20.2427C26.4817 21.0136 26.5883 21.7845 26.7067 22.5674C25.7237 23.0733 24.7407 23.5912 23.6749 24.1453C23.6157 23.9526 23.6157 23.7719 23.6394 23.6273C23.7696 22.4831 23.9117 21.3508 24.0657 20.2186C24.1012 19.9416 24.1723 19.6043 23.7815 19.5561C23.4143 19.5079 23.2604 19.7609 23.2249 20.1343C23.0827 21.4231 22.9051 22.7119 22.7393 24.061C22.0169 24.061 21.2945 24.061 20.501 24.061C20.6194 23.7719 20.7142 23.5189 20.8207 23.266C21.2471 22.2301 21.176 21.1581 21.1168 20.0741C21.0694 19.1707 21.105 18.2914 21.105 17.376Z" fill="white"/>
<path d="M3.61344 45.8263C4.56087 45.8022 5.52015 45.7058 6.46759 45.7661C9.28621 45.9588 11.9509 46.814 14.58 47.7896C19.1869 49.5 23.7583 51.3309 28.4836 52.6438C30.568 53.2219 32.676 53.6676 34.7841 54.1735C34.8551 54.1855 35.1275 54.2217 35.0209 54.3542C34.9617 54.4264 34.8078 54.4385 34.4761 54.4867C32.226 54.7637 29.9877 54.6433 27.7494 54.3783C23.9596 53.9326 20.312 52.8967 16.7236 51.5718C14.2839 50.6684 11.7732 49.9096 9.25068 49.2712C7.98349 48.946 6.6097 49.0303 5.28329 48.958C5.01091 48.946 4.83326 48.8978 4.71483 48.6328C4.33586 47.7655 3.94504 46.8863 3.55422 46.019C3.54238 46.007 3.42395 45.8263 3.61344 45.8263Z" fill="white"/>
<path d="M53.4718 24.0727H49.8123C49.9781 22.8441 50.1439 21.6878 50.2979 20.5314C50.3097 20.411 50.3334 20.2905 50.3571 20.1701C50.4163 19.881 50.4518 19.5919 50.0729 19.5678C49.8005 19.5558 49.5873 19.6281 49.5399 19.9894C49.4215 20.9048 49.2794 21.8203 49.1373 22.7236C49.0662 23.1573 48.9833 23.5788 48.8886 24.0366H46.1055C46.9345 22.832 46.8871 21.5673 46.7805 20.2665C46.6976 19.3269 46.7687 18.3874 46.7687 17.3516C47.5977 17.3516 48.4385 17.3516 49.2675 17.3516C51.7782 17.3636 54.2771 17.3516 56.7878 17.3757C58.1734 17.3877 59.0261 18.2549 59.6301 19.3992C60.1867 20.4712 60.092 21.5553 59.4998 22.5911C58.8011 23.8077 57.7234 24.1811 56.4088 24.1088C55.8285 24.0727 55.2482 24.1088 54.6442 24.1088C54.9521 22.7598 55.2364 21.4589 55.568 20.1701C55.6509 19.8449 55.6627 19.5558 55.3311 19.5317C55.1535 19.5197 54.8219 19.7726 54.7627 19.9774C54.585 20.5796 54.5021 21.2301 54.3718 21.8444C54.2889 22.2057 54.135 22.543 54.0402 22.9043C53.9218 22.4105 53.7679 21.9166 53.6613 21.4228C53.5428 20.9289 53.4599 20.423 53.3534 19.9172C53.2941 19.6281 53.0217 19.4474 52.7375 19.5076C52.3822 19.5919 52.4414 19.8449 52.5125 20.134C52.7494 21.0735 52.927 22.025 53.152 22.9766C53.2349 23.3259 53.3534 23.6632 53.4718 24.0727Z" fill="white"/>
<path d="M6.04092 24.0367C6.36068 22.6757 6.68044 21.3507 6.98835 20.0137C7.01204 19.9053 7.0002 19.7126 6.92914 19.6524C6.8344 19.568 6.62122 19.556 6.52648 19.568C6.25409 19.6042 6.08829 19.9776 6.01724 20.2305C5.83959 20.8809 5.733 21.5555 5.59089 22.23C5.5672 22.3625 5.50799 22.5672 5.36587 22.772C5.25929 22.3625 5.14086 21.8205 5.04611 21.4109C4.93953 20.9653 4.85663 20.5196 4.76188 20.086C4.69082 19.7728 4.60792 19.4115 4.18158 19.5199C3.76708 19.6283 3.8026 19.9655 3.89735 20.3148C4.20526 21.4591 4.50134 22.6034 4.79741 23.7477C4.8211 23.844 4.8211 23.9404 4.83294 24.0126C3.88551 24.0126 2.94991 24.1331 2.06169 23.9765C0.948453 23.7958 0.0365471 22.3143 0.00101831 21.0737C-0.0463535 18.9176 1.56429 17.3036 3.74339 17.3397C6.79887 17.3879 9.86619 17.3518 12.9217 17.3397C13.0756 17.3397 13.2296 17.3397 13.3717 17.3397C13.3717 18.3515 13.4309 19.3392 13.3599 20.3148C13.2533 21.5434 13.3125 22.7118 13.9994 23.7838C14.0467 23.8561 14.0941 23.9404 14.0704 24.0488C12.8269 24.0488 11.6189 24.0488 10.3754 24.0488C10.3754 23.844 10.3518 23.6754 10.3754 23.5068C10.6005 22.3986 10.8255 21.2905 11.0979 20.1944C11.1808 19.8571 11.1689 19.556 10.8373 19.4717C10.4583 19.3753 10.2925 19.7126 10.2215 20.0257C10.0912 20.616 9.99646 21.2182 9.87803 21.8084C9.81882 22.1095 9.74776 22.4227 9.66486 22.8322C9.57012 23.1093 9.43984 22.6034 9.41616 22.5191C9.22667 21.7964 9.07271 21.0616 8.88323 20.351C8.81217 20.098 8.69374 19.833 8.52794 19.6283C8.44504 19.5319 8.16081 19.4837 8.05422 19.556C7.94763 19.6283 7.87658 19.8812 7.91211 20.0378C8.22002 21.3507 8.53978 22.6636 8.87138 24.0247C7.93579 24.0367 7.03573 24.0367 6.04092 24.0367Z" fill="white"/>
<path d="M1.91895 25.3857C3.62433 25.3857 5.21128 25.3857 6.79824 25.3857C9.39184 25.3857 11.9736 25.3857 14.5672 25.3978C14.9817 25.3978 15.4081 25.5062 15.8226 25.6026C16.9476 25.8675 18.049 25.9398 19.1504 25.4942C19.3754 25.3978 19.6478 25.3978 19.8965 25.3978C20.5361 25.3857 21.1874 25.3978 21.8269 25.3978C21.969 25.3857 21.9809 25.4821 21.9098 25.5303C21.5309 25.7953 21.1756 26.0964 20.7848 26.3373C18.3688 27.8791 15.7515 28.8668 12.9329 29.2281C11.4051 29.4208 9.8774 29.3606 8.34966 28.9631C6.65612 28.5175 5.00995 27.9634 3.51774 27.0239C3.02034 26.7107 2.57031 26.3373 2.13212 25.9519C2.01369 25.8435 2.00185 25.6266 1.91895 25.3857Z" fill="white"/>
<path d="M53.1878 36.9851C51.6956 37.3585 50.3218 37.7439 48.9362 38.033C47.1124 38.4184 45.2649 38.4425 43.4056 38.3462C43.1332 38.3341 42.8134 38.298 42.541 38.2257C42.6476 37.9848 42.7897 37.6476 42.9318 37.4187C44.424 35.0217 46.6031 33.6486 49.3152 33.1788C51.8496 32.7332 53.9695 33.6125 55.7104 35.5156C55.9117 35.7324 55.8406 35.7926 55.6038 35.9733C55.5209 36.0335 55.3788 36.1299 55.284 36.1781C54.3011 36.8044 53.6615 36.5755 52.7378 35.7203C51.9088 34.9495 50.7482 34.8049 49.6231 34.8531C49.4455 34.8651 49.1138 34.9013 49.1138 35.1783C49.1138 35.4554 49.4218 35.4192 49.5757 35.4192C50.9258 35.4674 52.0983 35.889 53.1878 36.9851Z" fill="white"/>
<path d="M25.1203 56.3055C22.7991 56.7632 20.4779 56.6186 18.1685 56.3175C15.5157 55.9682 12.8865 55.4382 10.3877 54.4264C8.83625 53.8001 7.54537 52.8606 6.38476 51.644C6.3137 51.5718 6.1479 51.3911 6.12421 51.2586C6.08869 51.0779 6.50319 51.1141 6.74005 51.102C8.50464 51.0418 10.1745 51.5236 11.7851 52.174C15.717 53.764 19.7673 54.9444 23.9597 55.5707C24.5163 55.655 25.0848 55.7153 25.6414 55.7875C25.7717 55.7996 26.0085 55.8237 26.0085 55.9923C26.0085 56.1609 25.4282 56.2452 25.1203 56.3055Z" fill="white"/>
<path d="M56.7526 35.4072C52.4299 31.0951 48.0835 31.7214 43.749 34.9254C44.5662 33.3957 45.7742 32.3719 47.7283 31.601C49.706 30.818 51.7193 30.8421 53.7445 31.3239C54.8932 31.5889 55.817 32.2996 56.6815 33.0946C56.7881 33.1909 56.8947 33.3596 56.8828 33.492C56.8592 34.0823 56.7999 34.6604 56.7526 35.4072Z" fill="white"/>
<path d="M56.9779 32.4562C55.3317 30.8783 53.4487 30.2519 51.3762 30.0833C51.2459 30.0713 50.9854 30.0713 50.9854 29.8545C50.9854 29.6376 51.1985 29.6256 51.3288 29.5895C53.2237 29.0836 55.0593 29.3365 56.8476 30.0713C56.966 30.1195 57.0963 30.3242 57.0963 30.4567C57.0845 31.071 57.0252 31.6973 56.9779 32.4562Z" fill="white"/>
<path d="M24.741 39.4057C24.7055 39.7669 24.3384 40.116 24.0186 40.0919C23.6752 40.0678 23.3672 39.7067 23.3909 39.3335C23.4146 38.9362 23.7344 38.6352 24.0897 38.6593C24.4449 38.6954 24.7766 39.0686 24.741 39.4057Z" fill="white"/>
<path d="M45.6556 20.9291C45.5608 20.6521 45.4779 20.375 45.4779 20.086C45.4661 18.7128 45.5016 17.3397 45.4779 15.9666C45.4542 14.9427 45.4779 13.8828 45.2411 12.9071C44.6608 10.5222 43.5949 8.36614 42.0079 6.48712C39.1419 3.09042 35.4706 1.15117 31.1479 0.898229C24.8238 0.524833 19.8972 3.23496 16.5811 8.76363C15.456 10.6306 14.6863 12.6783 14.6389 14.9307C14.627 15.7136 14.6507 17.7733 14.6507 18.0142C14.6507 18.8815 14.7928 19.7969 14.6034 20.628C14.3783 21.6277 14.4494 22.4588 15.0415 23.2779C15.7876 24.3138 16.8417 24.6872 18.1207 24.3138C19.1037 24.0247 20.0156 22.8684 20.0274 21.7963C20.0393 21.3627 19.8379 20.9291 19.8379 20.4834C19.8379 18.2672 19.8143 16.0509 19.9327 13.8466C20.0037 12.606 20.513 11.4376 21.1762 10.3897C21.8157 9.36588 22.7039 8.57091 23.6632 7.83616C25.4633 6.46303 27.4766 5.78851 29.7031 5.72828C31.6927 5.66806 33.6231 6.02941 35.3285 7.06528C38.3603 8.89612 40.2433 11.546 40.2433 15.28C40.2433 17.3156 40.196 19.3512 40.1249 21.3989C40.042 23.4706 42.079 25.0124 43.9857 24.2656C44.9568 23.8922 46.1174 22.3625 45.6556 20.9291ZM17.197 22.8202C16.368 22.8202 15.7877 22.2179 15.7758 21.3627C15.764 20.4593 16.4153 19.7366 17.2325 19.7246C18.097 19.7126 18.7129 20.4232 18.7129 21.435C18.7129 22.3022 18.1326 22.8202 17.197 22.8202ZM42.9435 22.8322C42.079 22.8202 41.4513 22.1697 41.4513 21.3025C41.4513 20.375 42.0671 19.7607 42.9672 19.7487C43.8436 19.7366 44.4239 20.4353 44.4239 21.4591C44.4239 22.3022 43.8317 22.8443 42.9435 22.8322Z" fill="white"/>
<path d="M54.5968 40.7793C53.3651 41.5382 52.0979 42.2368 50.8189 42.9113C49.9307 43.369 49.0306 43.8026 48.095 44.1519C45.0988 45.2962 42.0196 46.0069 38.822 46.2719C34.3572 46.6453 30.0345 46.1876 25.9724 44.1519C24.421 43.3811 23.059 42.3211 21.9577 40.948C20.5483 39.2014 19.7075 37.2261 19.5772 34.9014C13.9874 37.7199 8.42117 37.744 2.80762 34.9857C2.84315 35.6723 2.86683 36.3106 2.92605 36.949C2.93789 37.0454 3.04447 37.1658 3.12737 37.202C3.71952 37.4429 4.31167 37.6717 4.90382 37.8765C7.49742 38.7437 10.1147 39.5387 12.6846 40.4903C16.0954 41.7429 19.4469 43.1402 22.8459 44.441C24.8355 45.1999 26.8251 45.9828 28.8502 46.6212C30.8754 47.2596 32.9479 47.7775 35.0204 48.2473C39.1536 49.1988 43.3223 49.4277 47.5147 48.7291C50.5228 48.2232 53.3533 47.2957 55.7337 45.2601C55.8995 45.1155 56.0653 44.8626 56.0772 44.6337C56.1956 43.3449 56.2785 42.0561 56.3732 40.7793C56.4088 40.3096 56.4443 40.1289 56.4443 39.5507C55.7456 40.0687 55.26 40.3698 54.5968 40.7793ZM15.8112 40.165C15.4204 40.153 15.1598 39.9482 15.1006 39.5507C15.0532 39.1653 15.4204 38.7799 15.7875 38.7799C16.1072 38.7919 16.4625 39.1653 16.4744 39.5026C16.4862 39.8519 16.1665 40.165 15.8112 40.165Z" fill="white"/>
<path d="M43.026 22.1576C42.5167 22.1696 42.1733 21.8324 42.1614 21.3265C42.1496 20.8206 42.5049 20.4111 42.9431 20.4231C43.4405 20.4231 43.855 20.8206 43.8668 21.2904C43.8905 21.7119 43.4641 22.1455 43.026 22.1576Z" fill="white"/>
<path d="M17.1971 22.1456C16.7589 22.1456 16.4036 21.8204 16.4036 21.3747C16.3918 20.8568 16.7471 20.4352 17.2208 20.4111C17.6945 20.3871 18.0972 20.8086 18.0972 21.3145C18.0853 21.7481 17.6708 22.1456 17.1971 22.1456Z" fill="white"/>
<path d="M52.3237 41.1287C53.1527 40.6348 56.5397 38.3101 56.5397 38.3101V36.7684C54.3251 38.1174 51.7789 39.0328 50.3577 39.358C48.5576 39.7676 46.7575 39.8398 44.9337 39.8398C41.0018 39.8278 37.2594 39.0931 33.9552 36.7684C32.392 35.6723 31.1011 34.3232 30.4616 32.4322C29.6444 30.0472 30.4734 27.6382 32.6407 26.4096C34.0381 25.6147 35.4593 25.699 36.8094 26.6265C38.1713 27.566 38.5858 28.8668 38.3016 30.4568C38.1003 31.5529 37.1292 32.5647 36.1225 32.7092C35.7909 32.7574 35.329 32.9019 35.2343 32.4683C35.1395 32.0106 35.6369 32.0347 35.933 31.9504C36.8568 31.6854 37.6266 30.6134 37.6029 29.6377C37.5673 28.3369 36.9041 27.4817 35.8027 26.9396C34.7843 26.4458 33.8013 26.7228 32.9249 27.3251C30.8761 28.7464 31.03 32.3478 33.4342 33.8053C35.2817 34.9255 37.8634 34.1546 39.0477 32.1792C40.0899 30.4327 40.0899 27.5901 38.4792 25.6629C38.4792 25.6629 36.1343 22.8323 32.2262 22.8323C28.318 22.8323 24.7651 25.1329 21.6978 27.3492C18.6423 29.5654 14.971 30.7459 10.897 30.7459C6.82306 30.7459 4.01629 29.1077 2.37012 27.8912L2.71356 34.1426C2.71356 34.1426 6.96518 36.3107 10.6247 36.3107C14.2841 36.3107 19.0805 35.2868 23.119 31.4686C27.1574 27.6503 28.7444 24.6631 32.4986 24.1813C32.8065 24.1452 33.3394 24.0609 33.3513 24.4704C33.3986 24.9883 32.842 24.9642 32.4986 25.0245C31.4801 25.1811 30.5563 25.6026 29.6918 26.1447C28.4009 26.9637 27.3114 28.0357 26.3165 29.192C24.623 31.1674 22.8466 33.0224 20.5846 34.3594C20.4306 34.4437 20.324 34.7568 20.3359 34.9616C20.478 37.3947 21.5557 39.4183 23.1782 41.1166C25.073 43.1161 27.5008 44.2122 30.1181 44.8626C34.275 45.8985 38.4556 45.7901 42.6243 44.8867C45.2771 44.3086 47.8352 43.3811 50.2867 42.2007M14.367 32.5526C14.296 32.5767 12.6143 33.1669 10.7549 33.1669C6.82307 33.1669 3.81496 31.4806 3.69653 31.4083C3.44783 31.2638 3.36492 30.9506 3.4952 30.6977C3.63731 30.4447 3.94523 30.3604 4.19393 30.4929C4.21762 30.505 7.09545 32.119 10.7549 32.119C12.4366 32.119 14.0117 31.5649 14.0236 31.5649C14.296 31.4686 14.5802 31.6131 14.6749 31.8781C14.7697 32.1672 14.6276 32.4562 14.367 32.5526ZM24.7414 39.4062C24.7059 39.7676 24.3388 40.1169 24.019 40.0928C23.6756 40.0687 23.3677 39.7074 23.3913 39.334C23.415 38.9365 23.7348 38.6353 24.0901 38.6594C24.4454 38.6956 24.777 39.069 24.7414 39.4062ZM48.4984 41.7189C45.3837 42.9836 42.1506 43.5015 38.8109 43.1041C36.6554 42.8511 34.654 42.1043 32.8065 40.9359C30.6984 39.5989 29.0996 37.8042 28.093 35.4796C27.8324 34.8773 27.6548 34.2389 27.489 33.6005C27.4179 33.3235 27.4061 32.9381 27.7732 32.8658C28.1285 32.8056 28.2233 33.1428 28.3062 33.4439C29.3247 37.3465 31.8117 39.888 35.4238 41.3816C39.4859 43.0559 43.5243 42.6102 47.5509 41.2371C47.7878 41.1528 48.1786 40.948 48.4155 40.8516C49.2919 40.5505 48.9721 41.5262 48.4984 41.7189Z" fill="white"/>
</svg>
