<svg width="292" height="290" viewBox="0 0 292 290" fill="none" xmlns="http://www.w3.org/2000/svg">
<rect width="292" height="290" rx="100" fill="#04656F"/>
<path d="M247.123 200.86C246.169 206.614 243.899 211.339 240.857 215.643C235.318 223.455 228.235 229.163 219.064 231.829C212.208 233.841 205.261 234.356 198.179 233.841C188.235 233.092 178.565 230.847 169.03 227.9C159.178 224.812 149.28 221.771 139.564 218.31C125.716 213.351 112.004 208.064 98.2928 202.778C88.7583 199.129 79.1329 195.667 69.0535 193.843C62.0615 192.58 55.0241 191.785 47.8959 192.58C47.4419 192.627 46.9879 192.627 46.2614 192.673C45.6258 185.188 45.0355 177.75 44.3999 170.078C48.3499 171.715 51.8913 173.306 55.5235 174.616C66.057 178.452 76.7266 182.007 87.2146 185.984C97.2032 189.726 107.101 193.89 117.044 197.773C130.665 203.106 144.377 208.158 158.633 211.62C169.62 214.286 180.608 216.625 191.913 216.953C205.715 217.374 219.245 215.643 232.321 210.825C238.632 208.392 242.219 206.053 247.123 200.86Z" fill="white"/>
<path d="M189.734 169.984C182.742 168.441 176.022 166.008 169.621 162.593C178.974 160.956 185.739 155.856 189.371 147.015C192.958 138.314 192.095 129.706 186.964 121.004C189.189 121.566 190.96 121.987 192.731 122.455C196.59 123.484 200.404 123.437 204.172 121.94C205.125 121.566 206.215 121.379 207.259 121.332C222.469 121.285 237.679 121.285 252.889 121.285C252.934 121.285 253.025 121.332 253.116 121.379C252.889 125.495 252.662 129.612 252.48 133.776C221.834 123.39 195.046 144.91 189.734 169.984Z" fill="white"/>
<path d="M113.911 90.1288C136.749 90.1288 159.677 90.1288 182.787 90.1288C182.787 93.8245 182.878 97.3799 182.742 100.982C182.605 105.052 182.242 109.122 184.195 112.911C184.694 113.847 185.874 115.531 185.602 115.858C184.603 117.215 183.65 116.56 182.424 115.625C179.927 113.66 177.339 111.789 174.796 109.917C174.024 109.356 173.57 108.795 173.843 107.625C174.388 105.286 174.66 102.853 174.932 100.421C174.978 99.8125 174.524 98.8301 174.07 98.5962C173.116 98.1751 172.254 98.643 172.027 99.8125C171.618 102.011 171.164 104.21 170.892 106.409C170.71 107.578 170.347 107.952 169.212 107.578C167.259 106.97 165.352 106.409 163.355 105.941C162.265 105.66 161.993 105.146 162.174 104.07C162.356 102.947 162.401 101.777 162.628 100.655C162.855 99.3915 162.401 98.4091 161.266 98.5026C160.585 98.5494 159.586 99.5786 159.405 100.327C159.041 101.871 159.178 103.508 159.087 105.333C155.999 105.333 153.048 105.333 149.961 105.333C149.961 103.929 149.87 102.432 150.006 100.982C150.143 99.5786 149.916 98.3623 148.372 98.3623C147.01 98.3623 146.556 99.3447 146.647 100.748C146.737 102.573 146.692 104.397 146.692 106.128C143.877 107.064 141.289 107.906 138.338 108.888C137.975 106.175 137.566 103.461 137.339 100.748C137.203 99.2979 136.658 98.1751 135.296 98.3623C133.798 98.5494 133.798 99.9061 134.025 101.263C134.524 104.257 134.933 107.251 135.387 110.291C131.618 112.256 127.85 114.268 123.764 116.42C123.537 115.671 123.537 114.97 123.627 114.408C124.127 109.964 124.672 105.567 125.262 101.169C125.398 100.093 125.671 98.7833 124.172 98.5962C122.765 98.409 122.175 99.3915 122.038 100.842C121.493 105.847 120.812 110.853 120.177 116.092C117.407 116.092 114.638 116.092 111.596 116.092C112.05 114.97 112.413 113.987 112.822 113.005C114.456 108.982 114.184 104.818 113.957 100.608C113.775 97.0992 113.911 93.6841 113.911 90.1288Z" fill="white"/>
<path d="M46.8516 200.626C50.4838 200.533 54.1614 200.158 57.7936 200.392C68.5994 201.141 78.815 204.462 88.8944 208.252C106.556 214.894 124.081 222.005 142.197 227.104C150.188 229.35 158.27 231.081 166.351 233.046C166.624 233.092 167.668 233.233 167.259 233.747C167.032 234.028 166.442 234.075 165.171 234.262C156.544 235.338 147.963 234.87 139.382 233.841C124.853 232.11 110.869 228.087 97.1123 222.941C87.7593 219.432 78.134 216.485 68.4632 214.006C63.6051 212.743 58.3384 213.07 53.2533 212.789C52.2091 212.743 51.528 212.555 51.074 211.526C49.6211 208.158 48.1228 204.743 46.6245 201.375C46.5791 201.328 46.1251 200.626 46.8516 200.626Z" fill="white"/>
<path d="M237.997 116.139H223.967C224.603 111.367 225.239 106.876 225.829 102.385C225.874 101.918 225.965 101.45 226.056 100.982C226.283 99.8593 226.419 98.7365 224.966 98.643C223.922 98.5962 223.105 98.8769 222.923 100.28C222.469 103.836 221.924 107.391 221.379 110.9C221.107 112.584 220.789 114.221 220.426 115.999H209.756C212.935 111.321 212.753 106.409 212.344 101.356C212.026 97.7073 212.299 94.0584 212.299 90.0352C215.477 90.0352 218.701 90.0352 221.879 90.0352C231.504 90.082 241.084 90.0352 250.71 90.1288C256.022 90.1756 259.291 93.5438 261.606 97.988C263.74 102.152 263.377 106.362 261.107 110.385C258.428 115.11 254.296 116.56 249.257 116.28C247.032 116.139 244.807 116.28 242.492 116.28C243.672 111.04 244.762 105.988 246.033 100.982C246.351 99.7189 246.396 98.5962 245.125 98.5026C244.444 98.4559 243.173 99.4383 242.946 100.234C242.265 102.573 241.947 105.099 241.447 107.485C241.13 108.888 240.539 110.198 240.176 111.601C239.722 109.683 239.132 107.765 238.723 105.847C238.269 103.929 237.951 101.964 237.543 99.9996C237.316 98.8769 236.271 98.1752 235.182 98.4091C233.82 98.7365 234.047 99.7189 234.319 100.842C235.227 104.491 235.908 108.186 236.771 111.882C237.089 113.239 237.543 114.549 237.997 116.139Z" fill="white"/>
<path d="M56.1593 115.999C57.3851 110.713 58.611 105.567 59.7915 100.374C59.8823 99.9528 59.8369 99.2043 59.5644 98.9704C59.2012 98.643 58.384 98.5962 58.0208 98.643C56.9765 98.7833 56.3409 100.234 56.0685 101.216C55.3874 103.742 54.9788 106.362 54.434 108.982C54.3432 109.496 54.1161 110.292 53.5713 111.087C53.1627 109.496 52.7087 107.391 52.3454 105.8C51.9368 104.07 51.619 102.339 51.2558 100.655C50.9834 99.4382 50.6655 98.0348 49.031 98.4558C47.442 98.8769 47.5781 100.187 47.9414 101.543C49.1218 105.988 50.2569 110.432 51.392 114.876C51.4828 115.25 51.4828 115.625 51.5282 115.905C47.896 115.905 44.3092 116.373 40.904 115.765C36.6361 115.063 33.1401 109.309 33.0039 104.491C32.8223 96.1168 38.9971 89.8481 47.3511 89.9884C59.065 90.1756 70.8243 90.0352 82.5382 89.9884C83.1284 89.9884 83.7187 89.9884 84.2635 89.9884C84.2635 93.9181 84.4905 97.7541 84.2181 101.543C83.8095 106.315 84.0365 110.853 86.6698 115.016C86.8514 115.297 87.0331 115.625 86.9422 116.046C82.175 116.046 77.5439 116.046 72.7766 116.046C72.7766 115.25 72.6858 114.595 72.7766 113.94C73.6393 109.637 74.5019 105.333 75.5462 101.076C75.864 99.7657 75.8186 98.5962 74.5473 98.2687C73.0944 97.8945 72.4588 99.2043 72.1864 100.421C71.687 102.713 71.3237 105.052 70.8697 107.344C70.6427 108.514 70.3703 109.73 70.0525 111.321C69.6892 112.397 69.1898 110.432 69.099 110.104C68.3726 107.298 67.7823 104.444 67.0559 101.684C66.7835 100.701 66.3294 99.6722 65.6938 98.8769C65.376 98.5026 64.2863 98.3155 63.8777 98.5962C63.4691 98.8769 63.1967 99.8593 63.3329 100.467C64.5133 105.567 65.7392 110.666 67.0105 115.952C63.4237 115.999 59.9731 115.999 56.1593 115.999Z" fill="white"/>
<path d="M40.3594 121.238C46.8974 121.238 52.9813 121.238 59.0653 121.238C69.0084 121.238 78.9062 121.238 88.8494 121.285C90.4385 121.285 92.073 121.706 93.6621 122.08C97.9753 123.11 102.198 123.39 106.42 121.659C107.283 121.285 108.327 121.285 109.281 121.285C111.732 121.238 114.229 121.285 116.681 121.285C117.226 121.238 117.271 121.613 116.999 121.8C115.546 122.829 114.184 123.998 112.686 124.934C103.424 130.922 93.3897 134.758 82.5838 136.162C76.7269 136.91 70.8699 136.676 65.013 135.132C58.5204 133.401 52.2095 131.25 46.4887 127.601C44.5818 126.384 42.8565 124.934 41.1766 123.437C40.7226 123.016 40.6772 122.174 40.3594 121.238Z" fill="white"/>
<path d="M236.907 166.289C231.187 167.739 225.92 169.236 220.608 170.359C213.616 171.856 206.533 171.949 199.405 171.575C198.36 171.528 197.135 171.388 196.09 171.107C196.499 170.172 197.044 168.862 197.589 167.973C203.309 158.663 211.663 153.33 222.061 151.506C231.777 149.775 239.904 153.19 246.578 160.581C247.35 161.423 247.078 161.657 246.169 162.359C245.852 162.593 245.307 162.967 244.944 163.154C241.175 165.587 238.723 164.698 235.182 161.377C232.004 158.383 227.554 157.821 223.241 158.008C222.56 158.055 221.289 158.196 221.289 159.272C221.289 160.348 222.469 160.207 223.06 160.207C228.235 160.394 232.73 162.032 236.907 166.289Z" fill="white"/>
<path d="M129.303 241.326C120.404 243.104 111.505 242.542 102.651 241.373C92.4813 240.016 82.4019 237.958 72.8219 234.028C66.8742 231.595 61.9253 227.946 57.4758 223.222C57.2034 222.941 56.5678 222.239 56.477 221.725C56.3408 221.023 57.9298 221.163 58.8379 221.116C65.6029 220.882 72.0047 222.754 78.1794 225.28C93.2531 231.455 108.781 236.04 124.853 238.472C126.987 238.8 129.167 239.034 131.301 239.314C131.8 239.361 132.708 239.455 132.708 240.11C132.708 240.765 130.483 241.092 129.303 241.326Z" fill="white"/>
<path d="M250.573 160.16C234.001 143.413 217.339 145.845 200.721 158.289C203.854 152.348 208.485 148.371 215.976 145.377C223.559 142.337 231.277 142.43 239.041 144.302C243.445 145.331 246.986 148.091 250.301 151.178C250.71 151.553 251.118 152.208 251.073 152.722C250.982 155.014 250.755 157.26 250.573 160.16Z" fill="white"/>
<path d="M251.436 148.699C245.125 142.571 237.906 140.138 229.961 139.483C229.461 139.436 228.462 139.436 228.462 138.594C228.462 137.752 229.28 137.705 229.779 137.565C237.043 135.6 244.081 136.583 250.937 139.436C251.391 139.623 251.89 140.419 251.89 140.933C251.845 143.319 251.618 145.752 251.436 148.699Z" fill="white"/>
<path d="M127.85 175.692C127.714 177.095 126.307 178.452 125.081 178.358C123.764 178.265 122.584 176.861 122.674 175.411C122.765 173.867 123.991 172.698 125.353 172.791C126.715 172.932 127.986 174.382 127.85 175.692Z" fill="white"/>
<path d="M208.031 103.929C207.668 102.853 207.35 101.777 207.35 100.655C207.305 95.3215 207.441 89.9884 207.35 84.6554C207.259 80.6789 207.35 76.5622 206.442 72.7729C204.218 63.5102 200.131 55.1363 194.047 47.8385C183.06 34.6461 168.985 27.1143 152.413 26.1319C128.168 24.6817 109.281 35.2075 96.5678 56.6801C92.2546 63.9312 89.3034 71.8841 89.1218 80.6322C89.0764 83.6729 89.1672 91.6725 89.1672 92.6082C89.1672 95.9764 89.712 99.5318 88.9856 102.76C88.123 106.643 88.3954 109.87 90.6655 113.052C93.5259 117.075 97.5667 118.525 102.47 117.075C106.239 115.952 109.735 111.461 109.78 107.297C109.825 105.613 109.054 103.929 109.054 102.198C109.054 93.5906 108.963 84.9828 109.417 76.4218C109.689 71.6034 111.642 67.0656 114.184 62.9956C116.636 59.0192 120.041 55.9316 123.719 53.078C130.62 47.7449 138.338 45.1251 146.874 44.8912C154.502 44.6573 161.902 46.0608 168.44 50.084C180.063 57.1947 187.282 67.4866 187.282 81.9888C187.282 89.8949 187.101 97.8009 186.828 105.754C186.51 113.8 194.32 119.788 201.63 116.888C205.353 115.437 209.802 109.496 208.031 103.929ZM98.9288 111.274C95.7506 111.274 93.5259 108.935 93.4805 105.613C93.4351 102.105 95.9322 99.2979 99.065 99.2511C102.379 99.2043 104.74 101.964 104.74 105.894C104.74 109.262 102.516 111.274 98.9288 111.274ZM197.634 111.321C194.32 111.274 191.913 108.748 191.913 105.379C191.913 101.777 194.274 99.3915 197.725 99.3447C201.085 99.2979 203.309 102.011 203.309 105.988C203.309 109.262 201.039 111.367 197.634 111.321Z" fill="white"/>
<path d="M242.31 181.025C237.588 183.972 232.73 186.685 227.826 189.305C224.421 191.083 220.971 192.767 217.384 194.124C205.897 198.568 194.092 201.328 181.834 202.357C164.717 203.807 148.145 202.03 132.572 194.124C126.624 191.13 121.403 187.013 117.18 181.68C111.777 174.896 108.554 167.224 108.054 158.196C86.6243 169.142 65.285 169.236 43.7642 158.523C43.9004 161.19 43.9912 163.669 44.2182 166.148C44.2636 166.523 44.6722 166.99 44.99 167.131C47.2602 168.066 49.5303 168.955 51.8004 169.751C61.7436 173.119 71.7776 176.206 81.63 179.902C94.7059 184.767 107.555 190.194 120.585 195.246C128.213 198.194 135.841 201.234 143.605 203.714C151.368 206.193 159.314 208.205 167.259 210.029C183.105 213.725 199.087 214.614 215.159 211.9C226.691 209.936 237.543 206.334 246.669 198.427C247.304 197.866 247.94 196.884 247.985 195.995C248.439 190.989 248.757 185.984 249.12 181.025C249.257 179.2 249.393 178.499 249.393 176.253C246.714 178.265 244.852 179.434 242.31 181.025ZM93.6163 178.639C92.118 178.592 91.1191 177.797 90.8921 176.253C90.7105 174.756 92.118 173.259 93.5255 173.259C94.7513 173.306 96.1134 174.756 96.1588 176.066C96.2042 177.423 94.9783 178.639 93.6163 178.639Z" fill="white"/>
<path d="M197.952 108.701C195.999 108.748 194.683 107.438 194.637 105.473C194.592 103.508 195.954 101.918 197.634 101.964C199.541 101.964 201.13 103.508 201.175 105.333C201.266 106.97 199.632 108.654 197.952 108.701Z" fill="white"/>
<path d="M98.9283 108.654C97.2484 108.654 95.8864 107.391 95.8864 105.66C95.841 103.649 97.203 102.011 99.0191 101.918C100.835 101.824 102.379 103.461 102.379 105.426C102.334 107.11 100.744 108.654 98.9283 108.654Z" fill="white"/>
<path d="M233.593 182.381C236.771 180.463 249.756 171.435 249.756 171.435V165.447C241.266 170.686 231.504 174.242 226.056 175.505C219.155 177.095 212.254 177.376 205.262 177.376C190.188 177.329 175.841 174.475 163.173 165.447C157.18 161.19 152.231 155.95 149.78 148.605C146.647 139.343 149.825 129.986 158.134 125.215C163.491 122.127 168.939 122.455 174.115 126.057C179.337 129.706 180.926 134.758 179.836 140.933C179.064 145.19 175.341 149.12 171.482 149.681C170.211 149.868 168.44 150.43 168.077 148.746C167.714 146.968 169.62 147.062 170.756 146.734C174.297 145.705 177.248 141.541 177.157 137.752C177.021 132.7 174.479 129.378 170.256 127.273C166.352 125.355 162.583 126.431 159.223 128.77C151.369 134.29 151.959 148.278 161.176 153.938C168.258 158.289 178.156 155.295 182.696 147.623C186.692 140.84 186.692 129.799 180.517 122.314C180.517 122.314 171.527 111.321 156.545 111.321C141.562 111.321 127.941 120.256 116.182 128.864C104.468 137.471 90.3929 142.056 74.7744 142.056C59.1559 142.056 48.3954 135.694 42.0845 130.969L43.4011 155.248C43.4011 155.248 59.7007 163.669 73.7301 163.669C87.7595 163.669 106.148 159.693 121.63 144.863C137.112 130.033 143.196 118.431 157.589 116.56C158.769 116.42 160.812 116.092 160.858 117.683C161.039 119.695 158.905 119.601 157.589 119.835C153.684 120.443 150.143 122.08 146.828 124.186C141.879 127.367 137.702 131.53 133.889 136.021C127.396 143.693 120.586 150.898 111.914 156.09C111.324 156.418 110.915 157.634 110.96 158.429C111.505 167.879 115.637 175.739 121.857 182.335C129.121 190.1 138.429 194.357 148.463 196.884C164.399 200.907 180.426 200.486 196.408 196.977C206.578 194.732 216.385 191.13 225.784 186.545M88.0774 149.073C87.8049 149.167 81.3578 151.459 74.2296 151.459C59.1559 151.459 47.6236 144.91 47.1696 144.629C46.2161 144.068 45.8983 142.851 46.3977 141.869C46.9426 140.886 48.123 140.559 49.0765 141.074C49.1673 141.12 60.2001 147.389 74.2296 147.389C80.6767 147.389 86.7153 145.237 86.7607 145.237C87.8049 144.863 88.8946 145.424 89.2578 146.453C89.621 147.576 89.0762 148.699 88.0774 149.073ZM127.85 175.692C127.714 177.095 126.306 178.452 125.081 178.358C123.764 178.265 122.583 176.861 122.674 175.411C122.765 173.867 123.991 172.698 125.353 172.791C126.715 172.932 127.986 174.382 127.85 175.692ZM218.928 184.674C206.987 189.586 194.592 191.597 181.788 190.054C173.525 189.071 165.852 186.171 158.769 181.633C150.688 176.44 144.558 169.47 140.699 160.441C139.7 158.102 139.019 155.623 138.383 153.143C138.111 152.067 138.066 150.57 139.473 150.289C140.835 150.056 141.198 151.365 141.516 152.535C145.421 167.692 154.955 177.563 168.803 183.364C184.376 189.866 199.859 188.136 215.296 182.803C216.204 182.475 217.702 181.68 218.61 181.306C221.97 180.136 220.744 183.925 218.928 184.674Z" fill="white"/>
</svg>
